<svg width="26" height="15" viewBox="0 0 26 15" fill="none" xmlns="http://www.w3.org/2000/svg">
<path d="M6.96426 14.794L0.203947 7.99718C-0.0679823 7.72258 -0.0679823 7.27741 0.203947 7.00275L6.96426 0.20595C7.23619 -0.0686501 7.67719 -0.0686501 7.94912 0.20595L8.3595 0.620225C8.63143 0.894826 8.63143 1.34 8.3595 1.6146L3.48869 6.5039H25.3036C25.6882 6.5039 26 6.81873 26 7.20703V7.79296C26 8.18126 25.6882 8.49609 25.3036 8.49609H3.48869L8.3595 13.3854C8.63143 13.6599 8.63143 14.1051 8.3595 14.3798L7.94912 14.794C7.67719 15.0686 7.23619 15.0686 6.96426 14.794Z" fill="#6B7999"/>
</svg>
